# xmcd
#
# Track frame offsets: 
#        150
#        11242
#        25521
#        49368
#        65036
#        78822
#        98470
#        114688
#        127239
#        145941
#        162773
#        180426
#        201292
#        213802
#        228792
#        243401
#        256497
#        270296
#        283560
#        295769
#
# Disc length: 4119 seconds
#
# Revision: 1
# Processed by: cddbd v1.5.2PL0 Copyright (c) Steve Scherf et al.
# Submitted via: ExactAudioCopy v1.0b4
#
DISCID=16101514
DTITLE=John Lee Hooker - Antthology  disc 3
DYEAR=2011
DGENRE=Blues
TTITLE0=I Need Some Money
TTITLE1=Come On And See About Me
TTITLE2=I'm Wanderin'
TTITLE3=Democrat Man
TTITLE4=I Want To Talk About You
TTITLE5=Gonna Use My Rod
TTITLE6=Wenesday Evenin' Blues
TTITLE7=No More Doggin'
TTITLE8=One Of These Days
TTITLE9=I Believe I'll Go Back Home
TTITLE10=You're Leavin' Me Baby
TTITLE11=That's My Story
TTITLE12=Leave My Wife Alone
TTITLE13=Ramblin' By Myself
TTITLE14=Sugar Mama
TTITLE15=Down At The Landing
TTITLE16=Louise
TTITLE17=Ground Hog Blues
TTITLE18=High Priced Woman
TTITLE19=Women And Money
EXTD=
EXTT0=
EXTT1=
EXTT2=
EXTT3=
EXTT4=
EXTT5=
EXTT6=
EXTT7=
EXTT8=
EXTT9=
EXTT10=
EXTT11=
EXTT12=
EXTT13=
EXTT14=
EXTT15=
EXTT16=
EXTT17=
EXTT18=
EXTT19=
PLAYORDER=
